<?xml version="1.0" standalone="no"?>
<!DOCTYPE svg PUBLIC "-//W3C//DTD SVG 20010904//EN"
 "http://www.w3.org/TR/2001/REC-SVG-20010904/DTD/svg10.dtd">
<svg version="1.0" xmlns="http://www.w3.org/2000/svg"
 width="200.000000pt" height="200.000000pt" viewBox="0 0 200.000000 200.000000"
 preserveAspectRatio="xMidYMid meet">
<metadata>
Created by potrace 1.15, written by Peter Selinger 2001-2017
</metadata>
<g transform="translate(0.000000,200.000000) scale(0.100000,-0.100000)"
fill="#147bc1" stroke="none">
<path d="M795 1984 c-111 -25 -184 -52 -280 -105 -183 -101 -320 -244 -414
-433 -79 -159 -96 -236 -96 -446 0 -210 17 -287 97 -447 98 -198 254 -354 451
-451 164 -81 239 -97 447 -97 208 0 283 16 447 97 196 97 354 255 451 451 81
164 97 239 97 447 0 208 -16 283 -97 447 -124 252 -367 452 -633 524 -108 28
-367 36 -470 13z m319 -574 c-18 -104 -36 -205 -40 -225 l-6 -35 131 0 c176 0
175 3 69 -171 -45 -74 -96 -159 -113 -189 -18 -30 -77 -129 -132 -220 -99
-162 -101 -165 -138 -168 -32 -3 -36 -1 -31 15 3 10 19 101 36 203 16 102 32
195 35 208 5 22 5 22 -124 22 -99 0 -131 3 -140 14 -15 18 -31 -10 214 400
l200 335 36 1 36 0 -33 -190z"/>
</g>
</svg>
